<svg xmlns="http://www.w3.org/2000/svg" viewBox="0 0 15 5.76"><defs><style>.cls-1{fill:#009bce;}</style></defs><g id="レイヤー_2" data-name="レイヤー 2"><g id="メイン"><path class="cls-1" d="M9.58,4H8.73a1.61,1.61,0,0,1-.89-.26,1.24,1.24,0,0,0,.31-.81V2.83a1.24,1.24,0,0,0-.3-.8,2,2,0,0,0-1.58-.69H3.58A1.72,1.72,0,0,0,1.7,2.83v.09A1.71,1.71,0,0,0,3.58,4.4H5.07A3.75,3.75,0,0,0,6.66,5.73l-.39,0H3.58C1.61,5.75,0,4.47,0,2.92V2.83C0,1.27,1.61,0,3.58,0H6.27l.42,0a3.57,3.57,0,0,1,2.9,1.75,2.28,2.28,0,0,1,.26,1.06v.09A2.33,2.33,0,0,1,9.58,4Z"/><path class="cls-1" d="M11.42,5.76H8.73l-.42,0A3.56,3.56,0,0,1,5.42,4a2.25,2.25,0,0,1-.27-1V2.84a2.26,2.26,0,0,1,.28-1.08h.84A1.54,1.54,0,0,1,7.16,2a1.28,1.28,0,0,0-.31.81v.09a1.28,1.28,0,0,0,.3.8,2,2,0,0,0,1.58.68h2.69A1.71,1.71,0,0,0,13.3,2.93V2.84a1.72,1.72,0,0,0-1.88-1.49H9.93A3.76,3.76,0,0,0,8.35,0l.38,0h2.69C13.39,0,15,1.28,15,2.84v.09C15,4.48,13.39,5.76,11.42,5.76Z"/></g></g></svg>