<svg xmlns="http://www.w3.org/2000/svg" width="31.58" height="45" viewBox="0 0 31.58 45"><path d="M30.142,15.976H25.11V8.734A8.68,8.68,0,0,0,16.509,0H15.071a8.654,8.654,0,0,0-8.6,8.734v7.243H1.438A1.438,1.438,0,0,0,0,17.334v26.2A1.438,1.438,0,0,0,1.438,45h28.7a1.438,1.438,0,0,0,1.438-1.464v-26.2A1.438,1.438,0,0,0,30.142,15.976ZM17.228,33.151v5.325a.719.719,0,0,1-.719.719H15.071a.719.719,0,0,1-.719-.719V33.151a5.033,5.033,0,1,1,2.876,0Zm3.595-17.175H10.651V8.734a4.367,4.367,0,0,1,4.42-4.367h1.438a4.367,4.367,0,0,1,4.314,4.367Z" transform="translate(0)" fill="#879898"/></svg>