<svg xmlns="http://www.w3.org/2000/svg" viewBox="0 0 60 37.77"><defs><style>.cls-1{fill:#747474;}</style></defs><g id="レイヤー_2" data-name="レイヤー 2"><g id="メイン"><path class="cls-1" d="M14.63,8.62A42.69,42.69,0,0,1,30.05,5.81,45.58,45.58,0,0,1,45.46,8.63,50.07,50.07,0,0,1,60,5.82V0H0V5.82A50.07,50.07,0,0,1,14.63,8.62Z"/><path class="cls-1" d="M37.47,22.33c0,.73.28,7.21,7.71,7.21s7.72-6.48,7.72-7.21A9.53,9.53,0,0,0,50,15.27a15.94,15.94,0,0,0-4.57-3.07,16.67,16.67,0,0,0-5.1,3.3A9.2,9.2,0,0,0,37.47,22.33Z"/><path class="cls-1" d="M49.58,10.74a16.65,16.65,0,0,1,2.73,2.2,12.82,12.82,0,0,1,3.89,9.39c0,3.63-2.3,10.5-11,10.5a10.73,10.73,0,0,1-7.91-2.93,11.64,11.64,0,0,1-3.1-7.57A12.48,12.48,0,0,1,38,13.16a17.29,17.29,0,0,1,3.23-2.5A43.44,43.44,0,0,0,30.05,9.11a45,45,0,0,0-11.22,1.53,17.67,17.67,0,0,1,3.27,2.52,12.51,12.51,0,0,1,3.83,9.17c0,3.63-2.3,10.5-11,10.5A10.73,10.73,0,0,1,7,29.9a11.64,11.64,0,0,1-3.1-7.57c0-5.31,2.73-9,6.62-11.58A52,52,0,0,0,0,9.12V37.77H60V9.13A52.26,52.26,0,0,0,49.58,10.74Z"/><path class="cls-1" d="M7.2,22.33c0,.73.29,7.21,7.72,7.21s7.71-6.48,7.72-7.21a9.17,9.17,0,0,0-2.86-6.83,16.56,16.56,0,0,0-5.13-3.32,15.87,15.87,0,0,0-4.52,3.06A9.58,9.58,0,0,0,7.2,22.33Z"/></g></g></svg>