<svg xmlns="http://www.w3.org/2000/svg" viewBox="0 0 7.67 7.46"><defs><style>.cls-1{fill:#879898;}</style></defs><g id="レイヤー_2" data-name="レイヤー 2"><g id="ヘッダー_フッダー" data-name="ヘッダー/フッダー"><path class="cls-1" d="M7.35,4.17a.37.37,0,0,1-.24-.1L3.84.79.56,4.07a.32.32,0,0,1-.46,0,.33.33,0,0,1,0-.47L3.6.1a.33.33,0,0,1,.47,0L7.58,3.6a.33.33,0,0,1,0,.47A.37.37,0,0,1,7.35,4.17Z"/><path class="cls-1" d="M3.84,1.41l-3,3V7a.44.44,0,0,0,.44.44H2.85V5.26A.22.22,0,0,1,3.07,5H4.6a.22.22,0,0,1,.22.22v2.2H6.36A.44.44,0,0,0,6.8,7V4.37Z"/></g></g></svg>