<svg xmlns="http://www.w3.org/2000/svg" viewBox="0 0 7.52 7.52"><defs><style>.cls-1{fill:#879898;}</style></defs><g id="レイヤー_2" data-name="レイヤー 2"><g id="ヘッダー_フッダー" data-name="ヘッダー/フッダー"><path class="cls-1" d="M3,6A3,3,0,0,1,.88,5.15,3,3,0,0,1,5.15.88a3,3,0,0,1,0,4.27A3,3,0,0,1,3,6ZM3,1a1.94,1.94,0,0,0-1.4.58,2,2,0,1,0,2.79,0A1.94,1.94,0,0,0,3,1Z"/><path class="cls-1" d="M7,7.52a.51.51,0,0,1-.37-.15L4.41,5.15a.52.52,0,0,1,.74-.74L7.37,6.63a.53.53,0,0,1,0,.74A.55.55,0,0,1,7,7.52Z"/></g></g></svg>