<svg xmlns="http://www.w3.org/2000/svg" viewBox="0 0 9.56 9.56"><defs><style>.cls-1{fill:#879898;}</style></defs><g id="レイヤー_2" data-name="レイヤー 2"><g id="メイン"><path class="cls-1" d="M4.78,0A4.78,4.78,0,1,0,9.56,4.78,4.78,4.78,0,0,0,4.78,0ZM4.42,1.21A.65.65,0,0,1,4.89,1a.62.62,0,0,1,.47.2.68.68,0,0,1,.18.48.65.65,0,0,1-.19.5.71.71,0,0,1-.49.2.63.63,0,0,1-.47-.2.74.74,0,0,1-.18-.49A.64.64,0,0,1,4.42,1.21ZM5.91,8.14H5.37l-.57,0H4.17l-.26,0c-.14,0-.19,0-.23,0A.19.19,0,0,1,3.59,8a.17.17,0,0,1,.11-.18l.2,0a.31.31,0,0,0,.31-.22,2,2,0,0,0,0-.44V5.31a3.13,3.13,0,0,0,0-.65L4,4.63H3.9s-.07,0-.11-.07,0-.1,0-.17a1.14,1.14,0,0,1,.31-.14,2.31,2.31,0,0,0,.43-.19A2.33,2.33,0,0,0,5,3.77a.91.91,0,0,1,.25-.15.2.2,0,0,1,.13,0,.19.19,0,0,1,0,.12c0,.08,0,.29,0,.64V7a2,2,0,0,0,.06.66.38.38,0,0,0,.31.15l.16,0s.09,0,.1.08A.33.33,0,0,1,6,8C6,8.11,6,8.14,5.91,8.14Z"/></g></g></svg>