<svg xmlns="http://www.w3.org/2000/svg" viewBox="0 0 15.81 8.48"><defs><style>.cls-1{fill:#879898;}</style></defs><g id="レイヤー_2" data-name="レイヤー 2"><g id="メイン"><path class="cls-1" d="M4.37,7.12c.63.19,1.32.35,1.89.48l-.34.88C5,8.22,4.14,7.91,3.36,7.6a1.19,1.19,0,0,0-.42-.11C1.34,7.43,0,6.19,0,3.8S1.26,0,3.15,0s3,1.56,3,3.67c0,1.83-.74,3-1.8,3.41ZM1.16,3.77c0,1.49.69,2.82,1.92,2.82S5,5.28,5,3.72,4.4.9,3.11.9,1.16,2.34,1.16,3.77Z"/><path class="cls-1" d="M10.19,6.21H9.32l-.4-.44a1.83,1.83,0,0,1-1.33.51,1.38,1.38,0,0,1-1.5-1.37A1.61,1.61,0,0,1,7,3.49v0a1.71,1.71,0,0,1-.39-1A1.19,1.19,0,0,1,7.87,1.22,1,1,0,0,1,9,2.28c0,.51-.27.92-1,1.31v0c.33.4.74.9,1,1.25a3.51,3.51,0,0,0,.42-1.36h.67a3.74,3.74,0,0,1-.7,1.82ZM8.57,5.34C8.26,5,7.79,4.43,7.33,3.89a1.12,1.12,0,0,0-.52.9.89.89,0,0,0,.9.94A1.14,1.14,0,0,0,8.57,5.34Zm-1.28-3a1.31,1.31,0,0,0,.34.83c.44-.27.69-.52.69-.9a.52.52,0,0,0-.5-.59C7.46,1.72,7.29,2.05,7.29,2.38Z"/><path class="cls-1" d="M15.81,7.39H14.65L14,5.25H11.77l-.63,2.14H10L12.24.11h1.35Zm-2-3-.57-1.9c-.13-.48-.25-1-.36-1.44h0c-.1.45-.21,1-.34,1.43L11.94,4.4Z"/></g></g></svg>