<svg xmlns="http://www.w3.org/2000/svg" viewBox="0 0 11.33 7.45"><defs><style>.cls-1{fill:#879898;fill-rule:evenodd;}</style></defs><g id="レイヤー_2" data-name="レイヤー 2"><g id="メイン"><path class="cls-1" d="M11.33.81a.68.68,0,0,0-.07-.32L7.55,3.67l3.73,3.26a.93.93,0,0,0,.05-.29Z"/><path class="cls-1" d="M6,4.19,10.78.05a.75.75,0,0,0-.26,0H.81A.75.75,0,0,0,.55.05L5.39,4.19h0A.45.45,0,0,0,6,4.19Z"/><path class="cls-1" d="M7.05,4.09l-.68.59A1.12,1.12,0,0,1,5,4.68H5l-.68-.59L.51,7.39a.73.73,0,0,0,.3.06h9.71a.73.73,0,0,0,.3-.06Z"/><path class="cls-1" d="M.07.49A.83.83,0,0,0,0,.81V6.64a.72.72,0,0,0,.06.29L3.78,3.67Z"/></g></g></svg>