<svg xmlns="http://www.w3.org/2000/svg" viewBox="0 0 13.54 10.92"><defs><style>.cls-1{fill:#879898;}</style></defs><g id="レイヤー_2" data-name="レイヤー 2"><g id="メイン"><path class="cls-1" d="M13.53,9c0-.33-.07-.67-.11-1l-.09-.81-.09-.85-.09-.82c0-.28-.05-.56-.08-.84L13,3.87c0-.28-.07-.56-.09-.84a.28.28,0,0,0-.12-.23l0,0a3,3,0,0,0-.55-.39,5.09,5.09,0,0,0-2-.53c-.19,0-.38,0-.58,0a4.7,4.7,0,0,0-1,.05A3.37,3.37,0,0,0,7,2.6a1.54,1.54,0,0,0-.26.25,1.93,1.93,0,0,0-.5-.44,3.79,3.79,0,0,0-.34-.2,3,3,0,0,0-1.28-.38,10.33,10.33,0,0,0-1.57,0,5,5,0,0,0-1,.22,4.09,4.09,0,0,0-.93.42l-.42.33A.21.21,0,0,0,.66,3L.54,4.14C.48,4.67.43,5.2.37,5.73S.24,6.89.18,7.46.06,8.57,0,9.12a.62.62,0,0,0,0,.33l.3,1c0,.1.06.2.1.3a.21.21,0,0,0,.21.15.44.44,0,0,0,.28-.12L1,10.67a3.09,3.09,0,0,1,.81-.41A4.86,4.86,0,0,1,3.18,10,5.61,5.61,0,0,1,4,10a3,3,0,0,1,.66.11A3.69,3.69,0,0,1,6,10.84a.15.15,0,0,0,.09,0c.25,0,.49,0,.73,0l.58,0a.48.48,0,0,0,.32-.13A1.64,1.64,0,0,1,8,10.51,3.37,3.37,0,0,1,9.88,10a6.37,6.37,0,0,1,1,.06,4.64,4.64,0,0,1,.84.18,3.12,3.12,0,0,1,1,.51.38.38,0,0,0,.27.08.16.16,0,0,0,.16-.09.19.19,0,0,0,0-.08l.41-1.25a.24.24,0,0,0,0-.08C13.54,9.23,13.54,9.12,13.53,9ZM.39,9.22v0c0-.48.11-.95.16-1.43L.67,6.62c0-.43.09-.86.14-1.29S.9,4.48.94,4.05,1,3.43,1,3.12A.17.17,0,0,1,1.12,3a4.05,4.05,0,0,1,1-.48,4.24,4.24,0,0,1,1-.24,10.18,10.18,0,0,1,1.46,0,2.45,2.45,0,0,1,1.11.32,2.66,2.66,0,0,1,.53.34,2,2,0,0,1,.21.2.2.2,0,0,1,0,.14v.56c0,.77,0,1.54,0,2.32l0,3.18v.08h0l-.22-.18-.09-.07,0,0-.26-.22a3.5,3.5,0,0,0-.8-.45,3,3,0,0,0-.92-.2,7.24,7.24,0,0,0-1.14,0,6.33,6.33,0,0,0-1.23.21,4.13,4.13,0,0,0-1,.45l-.35.26Zm12.4,1.17h0a3,3,0,0,0-1.12-.56,4.81,4.81,0,0,0-1.05-.18l-.76,0a3.57,3.57,0,0,0-2,.53l-.27.15-.25.13,0,0a.18.18,0,0,1-.16,0,5.75,5.75,0,0,1-.83,0,.11.11,0,0,1-.08,0l-.06,0-.34-.19A6.46,6.46,0,0,0,5,9.83a3.25,3.25,0,0,0-.82-.18,6,6,0,0,0-1.12,0,5.25,5.25,0,0,0-1.42.27,3.27,3.27,0,0,0-.88.48l0,0L.51,9.64c0-.05,0-.06,0-.08a3.92,3.92,0,0,1,.58-.39,4.38,4.38,0,0,1,1.36-.46c.29,0,.57-.07.86-.09a6.19,6.19,0,0,1,.86,0,2.27,2.27,0,0,1,1,.29c.16.09.31.19.46.29a.82.82,0,0,1,.2.17,2.28,2.28,0,0,0,.46.36l.09.07a.22.22,0,0,0,.32,0l0,0a.17.17,0,0,0,.21,0,4.26,4.26,0,0,0,.63-.49,2.09,2.09,0,0,1,.29-.23,3,3,0,0,1,.83-.42,3.31,3.31,0,0,1,.94-.1l.77,0a5.42,5.42,0,0,1,1.32.26A4.35,4.35,0,0,1,13,9.54l0,0,0,0Zm.3-1.22a3.81,3.81,0,0,0-1.73-.79,6.41,6.41,0,0,0-1.07-.15c-.23,0-.45,0-.68,0a3.26,3.26,0,0,0-1.27.24A4,4,0,0,0,7.5,9l-.13.13L7,9.41l0,0L6.89,3.25a.36.36,0,0,0,.18-.14,1.28,1.28,0,0,1,.29-.28,3.52,3.52,0,0,1,1.1-.54,2.79,2.79,0,0,1,.7-.08h.63a5.52,5.52,0,0,1,1.56.24,4.91,4.91,0,0,1,1,.48.26.26,0,0,1,.15.22c0,.28.06.56.09.84l.09.83c0,.28.05.56.08.83l.09.83.09.85.09.82.09.84a1.36,1.36,0,0,1,0,.21Z"/><path class="cls-1" d="M10.63,2.21c0,2.14-3.88,4.41-3.88,4.41S2.87,4.35,2.87,2.21A2.18,2.18,0,0,1,6.75.81C8.36-.69,10.63.06,10.63,2.21Z"/></g></g></svg>