<svg xmlns="http://www.w3.org/2000/svg" width="26.4" height="30" viewBox="0 0 26.4 30"><g transform="translate(5.347)"><circle cx="8.911" cy="8.911" r="8.911" transform="translate(2.097 11.532)" fill="#fff"/><path d="M8.911,1a7.911,7.911,0,1,0,7.911,7.911A7.92,7.92,0,0,0,8.911,1m0-1A8.911,8.911,0,1,1,0,8.911,8.911,8.911,0,0,1,8.911,0Z" transform="translate(2.097 11.532)" fill="#707070"/><g transform="translate(-5.346)"><path d="M14.74,22v3.59a.49.49,0,0,0,.49.49h1a.49.49,0,0,0,.49-.49V22a3.39,3.39,0,1,0-1.94,0Z" fill="#fff"/><path d="M25.42,10.35H12.59V5.9A5.85,5.85,0,0,0,6.78,0h-1A5.85,5.85,0,0,0,0,5.9v4.57H2.91V5.9A2.93,2.93,0,0,1,5.81,3h1A2.93,2.93,0,0,1,9.72,6v4.45H6a1,1,0,0,0-1,1V29a1,1,0,0,0,1,1H25.4a1,1,0,0,0,1-1V11.33A1,1,0,0,0,25.42,10.35ZM16.68,22v3.59a.49.49,0,0,1-.49.49h-1a.49.49,0,0,1-.49-.49V22a3.39,3.39,0,1,1,1.94,0Z"/></g></g></svg>