<svg xmlns="http://www.w3.org/2000/svg" viewBox="0 0 35.08 50"><defs><style>.cls-1{fill:#fff;}</style></defs><g id="レイヤー_2" data-name="レイヤー 2"><g id="ヘッダー_フッダー" data-name="ヘッダー/フッダー"><rect class="cls-1" x="7.07" y="23.53" width="20.57" height="23.37"/><path d="M33.48,17.65H27.9V9.71A9.64,9.64,0,0,0,18.34,0h-1.6A9.64,9.64,0,0,0,7.18,9.71v7.94H1.59A1.6,1.6,0,0,0,0,19.27V48.38A1.6,1.6,0,0,0,1.59,50H33.48a1.6,1.6,0,0,0,1.6-1.62V19.27A1.6,1.6,0,0,0,33.48,17.65ZM19.13,36.82v5.9a.8.8,0,0,1-.79.81h-1.6a.8.8,0,0,1-.79-.81v-5.9a5.58,5.58,0,1,1,3.18,0Zm4-19.17H12V9.71a4.82,4.82,0,0,1,4.78-4.86h1.6a4.83,4.83,0,0,1,4.78,4.86Z"/></g></g></svg>