<svg xmlns="http://www.w3.org/2000/svg" xmlns:xlink="http://www.w3.org/1999/xlink" width="271.59" height="50" viewBox="0 0 271.59 50"><defs><radialGradient id="a" cx="0.685" cy="0.313" r="0.547" gradientTransform="translate(0)" gradientUnits="objectBoundingBox"><stop offset="0.19" stop-color="#ffdfbe"/><stop offset="0.51" stop-color="#ffcc8f"/><stop offset="1" stop-color="#ffab40"/></radialGradient><radialGradient id="b" cx="0.685" cy="0.313" r="0.547" gradientTransform="translate(0)" gradientUnits="objectBoundingBox"><stop offset="0.14" stop-color="#b3daea"/><stop offset="1" stop-color="#009bce"/></radialGradient></defs><g transform="translate(0 -0.018)"><g transform="translate(0 0.018)"><path d="M21.362,4.392c-.536,0-.536-.972,0-.972H32.385a.469.469,0,0,1,.436.5.436.436,0,0,1-.436.469Z" transform="translate(49.42 8.003)" fill="#231815"/><path d="M30.207,7.707v4.959c0,.771-.235,1.106-.972,1.106a5.662,5.662,0,0,1-1.307-.2.4.4,0,0,1-.369-.436.335.335,0,0,1,.335-.369h0a5.361,5.361,0,0,0,1.072.2c.268,0,.335,0,.335-.5V7.841H28.264v3.351a.4.4,0,0,1-.771,0V7.841H26.455a17.825,17.825,0,0,1-.7,5.327.447.447,0,0,1-.871-.1h0a17.59,17.59,0,0,0,.7-4.992h-.3a.424.424,0,0,1-.4-.469c0-.235,0-.3.335-.335h.369V4.289c0-.8.335-1.173,1.173-1.173h.3a5.663,5.663,0,0,0,.436-1.039.4.4,0,0,1,.369-.268c.235,0,.469,0,.469.335h0a6.7,6.7,0,0,1-.469.871h1.072c.838,0,1.139.369,1.139,1.173V6.836h.168c.268,0,.369,0,.369.335a.436.436,0,0,1-.335.436Zm-.8-3.351c0-.235,0-.335-.3-.335H26.857c-.235,0-.3,0-.3.335V7.506A20.009,20.009,0,0,0,29.4,7.2ZM28.633,6.3a.369.369,0,0,1-.7,0c0-.469-.436-.938-.67-1.441a.469.469,0,0,1,0-.2A.394.394,0,0,1,28,4.49a8.41,8.41,0,0,1,.637,1.642Zm8.276,7a.469.469,0,0,1-.436.5h0A8.209,8.209,0,0,1,33.725,12.5a8.644,8.644,0,0,1-2.714,1.407h0a.469.469,0,0,1-.4-.469.369.369,0,0,1,.268-.369,8.477,8.477,0,0,0,2.345-1.106,11.894,11.894,0,0,1-1.709-2.379.837.837,0,0,1,0-.235.469.469,0,0,1,.469-.536.235.235,0,0,1,.235,0,13.4,13.4,0,0,0,1.642,2.479,5.394,5.394,0,0,0,1.474-2.613h0s0-.2-.335-.2H31.145a.436.436,0,0,1,0-.838h4.188a.972.972,0,0,1,1.039,1.039,1.508,1.508,0,0,1,0,.369,7.438,7.438,0,0,1-1.843,2.982A6.7,6.7,0,0,0,36.875,13a.435.435,0,0,1,.1.3ZM35.836,6.6h-.4c-.637,0-.972-.3-.972-.9V3.485c0-.369-.168-.436-.436-.436H33.022c-.3,0-.4,0-.4.4a3.954,3.954,0,0,1-1.34,3.518.436.436,0,0,1-.268,0,.5.5,0,0,1-.469-.5.369.369,0,0,1,.168-.335,3.082,3.082,0,0,0,1.273-2.781h0a.972.972,0,0,1,1.072-1.039H34.5a.972.972,0,0,1,1.039,1.039V5.8c0,.235,0,.268.3.268s.5-.2.57-1.24a.3.3,0,0,1,.3-.335.469.469,0,0,1,.436.469h0C36.875,6.032,36.707,6.7,35.9,6.7Z" transform="translate(58.663 4.194)" fill="#231815"/><path d="M34.194,8.789c0,.268-.2.536-.4.536a.268.268,0,0,1-.235,0L31.949,7.884v5.528a.436.436,0,0,1-.838,0V8.387A14.273,14.273,0,0,1,29.47,9.526h0c-.235.034-.57-.4-.57-.4a.369.369,0,0,1,.2-.335A8.242,8.242,0,0,0,32.988,5.07h0s0-.168-.3-.168H29.537a.369.369,0,0,1,0-.737h1.508V2.49c0-.469.871-.469.871,0V4.165h.972a.8.8,0,0,1,.9.838,1.642,1.642,0,0,1-.235.8,9.248,9.248,0,0,1-1.206,1.642l1.642,1.34a.5.5,0,0,1,.2,0Zm0,4.456a.4.4,0,1,1,0-.8h2.814V5.405H34.864c-.469,0-.469-.8,0-.8h2.144V2.222c0-.536.9-.536.9,0V4.6h2.144a.4.4,0,0,1,0,.8H37.913v7.07h2.446c.469,0,.469.8,0,.8Z" transform="translate(68.141 4.218)" fill="#231815"/><path d="M42.449,13.067h-7.84A1.441,1.441,0,0,1,33,11.592V3.451A1.441,1.441,0,0,1,34.609,2.01h7.84a1.441,1.441,0,0,1,1.642,1.474v8.108a1.441,1.441,0,0,1-1.642,1.474Zm.6-9.649a.637.637,0,0,0-.637-.67H34.374a.637.637,0,0,0-.637.67v8.209a.6.6,0,0,0,.637.637h8.041a.6.6,0,0,0,.637-.637ZM40.874,5.6V9.549c0,1.34-.5,1.843-1.642,1.843a9.817,9.817,0,0,1-1.943-.268.46.46,0,0,1,.067-.9h0a8.108,8.108,0,0,0,1.742.3c.737,0,.771-.369.771-1.005V5.6H34.843a.4.4,0,0,1,0-.8H40.1V3.685a.469.469,0,0,1,.9,0V4.791h1.173a.4.4,0,0,1,0,.8ZM37.792,8.946a.436.436,0,0,1-.469.436.335.335,0,0,1-.335-.2A8.946,8.946,0,0,0,35.48,7a.235.235,0,0,1,0-.2.641.641,0,0,1,.771-.4,11.559,11.559,0,0,1,1.541,2.178.838.838,0,0,1,.134.134Z" transform="translate(77.807 4.631)" fill="#231815"/><path d="M39.579,6.635a.5.5,0,0,1-.436.5h-.168A10.554,10.554,0,0,0,37.066,6.1a.369.369,0,0,1-.2-.3A.469.469,0,0,1,37.4,5.16h.2a15.379,15.379,0,0,1,1.91,1.072A.536.536,0,0,1,39.579,6.635Zm-1.809,6.7a.4.4,0,0,1-.369.235.5.5,0,0,1-.536-.469.235.235,0,0,1,0-.2,33.737,33.737,0,0,0,1.943-3.987.4.4,0,0,1,.4-.235.436.436,0,0,1,.536.469.3.3,0,0,1,0,.168A35.915,35.915,0,0,1,37.77,13.336ZM39.847,3.284a.469.469,0,0,1-.4.469h0c-.737-.436-1.34-.771-1.977-1.072a.3.3,0,0,1-.369-.235.469.469,0,0,1,.3-.469h.2l1.91,1.005a.469.469,0,0,1,.335.436Zm8.979,10.052a.436.436,0,0,1-.469.436.4.4,0,0,1-.369-.235L47.452,12.5c-2.647.469-4.523.67-7.606.938h0a.469.469,0,0,1-.436-.469.4.4,0,0,1,.436-.469h.9A18.462,18.462,0,0,0,43.1,7.941H40.215a.436.436,0,0,1,0-.838h3.619V4.222H40.751a.436.436,0,0,1,0-.838h3.116V2.212c0-.536.9-.536.9,0V3.385h3.35a.436.436,0,0,1,0,.838h-3.35V7.07h3.786a.436.436,0,0,1,0,.838H44.1A21.577,21.577,0,0,1,41.79,12.5a53.038,53.038,0,0,0,5.294-.7c-.4-.8-.8-1.541-1.24-2.345a.4.4,0,0,1,.436-.369.335.335,0,0,1,.335.2c.737,1.24,1.441,2.546,2.211,4.121q0-.017,0-.034Z" transform="translate(86.837 4.194)" fill="#231815"/><path d="M52.656,13.084a.57.57,0,0,1-.536.57.335.335,0,0,1-.235,0,13.636,13.636,0,0,1-5.16-6.969,10.32,10.32,0,0,1-5.394,6.969v.067a.5.5,0,0,1-.469-.536.4.4,0,0,1,.268-.436,9.448,9.448,0,0,0,5.227-8.242V2.329a.469.469,0,1,1,.938,0V4.641a11.626,11.626,0,0,0,5.16,8.075A.469.469,0,0,1,52.656,13.084Z" transform="translate(96.338 4.312)" fill="#231815"/><path d="M40.587,28.676H30.535a1.541,1.541,0,0,1-1.776-1.742V21a.972.972,0,0,1-.7.369.7.7,0,0,1-.57-.335l-1.106-1.273V28.14a1.106,1.106,0,0,1-2.178,0V19.9c-.4.4-.838.771-1.307,1.173a1,1,0,0,1-.637.235,1.273,1.273,0,0,1-1.139-1.273.838.838,0,0,1,.335-.7A14.709,14.709,0,0,0,26.481,13.1H22.394a1.005,1.005,0,0,1-1.072-1.039,1.039,1.039,0,0,1,1.072-1.039h1.675V8.271a1.106,1.106,0,0,1,2.178,0v2.513h1.173a1.474,1.474,0,0,1,1.541,1.642,3.752,3.752,0,0,1-.436,1.608,27,27,0,0,1-1.977,3.35c.8.67,1.608,1.34,2.379,2.077.2-.771.737-1.139,1.709-1.139H40.687a1.541,1.541,0,0,1,1.742,1.742v6.869a1.541,1.541,0,0,1-1.843,1.742ZM29.262,10.214a1.106,1.106,0,0,1,0-2.211H41.827a1.106,1.106,0,1,1,0,2.211Zm10.956,6.7H30.77a1.24,1.24,0,0,1-1.407-1.407V12.861A1.24,1.24,0,0,1,30.77,11.32h9.515a1.24,1.24,0,0,1,1.407,1.407v2.881a1.24,1.24,0,0,1-1.474,1.407Zm-5.83,3.351H31.205c-.235,0-.369,0-.369.335v1.608h3.552Zm0,3.954H30.77v2.044a.335.335,0,0,0,.369.369h3.183Zm5.059-10.688a.268.268,0,0,0-.3-.3H31.775a.268.268,0,0,0-.3.3V14.57a.268.268,0,0,0,.3.3h7.371a.268.268,0,0,0,.3-.3Zm.737,7.07c0-.235,0-.335-.369-.335H36.466v1.943h3.652Zm0,3.619H36.533v2.144h3.351c.268,0,.369,0,.369-.369Z" transform="translate(49.803 17.337)" fill="#231815"/><path d="M45.956,28.668a19.9,19.9,0,0,1-3.351-.369,1.106,1.106,0,0,1-.938-1.173,1.173,1.173,0,0,1,1.005-1.24h.2a19.032,19.032,0,0,0,2.479.335c1.139,0,1.642-.5,1.642-2.278v-13.4a.771.771,0,0,0-.771-.771H31.482a.771.771,0,0,0-.771.771V27.8C30.711,29,28.5,29,28.5,27.8V9.738A2.178,2.178,0,0,1,30.711,7.56H46.928a2.211,2.211,0,0,1,2.178,2.178V24.681C49.24,27.63,48.368,28.668,45.956,28.668ZM39.992,16.607v6.2h2.446c.235,0,.335,0,.335-.369V19.086c0-1.106,2.211-1.106,2.211,0v4.255a1.541,1.541,0,0,1-1.776,1.742H34.564a1.541,1.541,0,0,1-1.776-1.742V19.086c0-1.106,2.211-1.106,2.211,0v3.351a.335.335,0,0,0,.369.369h2.446v-6.2H32.353a1.072,1.072,0,0,1,0-2.144H35.7l-.3-.3c-.3-.436-.871-1.24-1.474-1.943a.871.871,0,0,1-.235-.6,1.24,1.24,0,0,1,1.24-1.106.9.9,0,0,1,.771.369,17.355,17.355,0,0,1,1.508,2.144,1,1,0,0,1,0,.469,1.139,1.139,0,0,1-.67.972H39.59A31.426,31.426,0,0,0,41.9,11.112a1,1,0,0,1,.9-.536,1.307,1.307,0,0,1,1.273,1.173.972.972,0,0,1-.2.536c-.469.7-1.106,1.575-1.709,2.312H45.32a1.072,1.072,0,1,1,0,2.144Z" transform="translate(67.205 17.814)" fill="#231815"/><path d="M42.4,24.983a17.825,17.825,0,0,1-5.126,2.781.737.737,0,0,1-.335,0A1.441,1.441,0,0,1,35.6,26.39a.938.938,0,0,1,.7-.938,18.226,18.226,0,0,0,4.624-2.345,1.508,1.508,0,0,1,.637-.168,1.273,1.273,0,0,1,1.273,1.173A1,1,0,0,1,42.4,24.983Zm5.26-2.245v4.925c0,1.34-2.513,1.34-2.513,0V22.738H38.683a1.541,1.541,0,0,1-1.742-1.776V9.034c0-1.34,2.412-1.34,2.412,0V20.057a.335.335,0,0,0,.369.369H56.105a1.106,1.106,0,1,1,0,2.211Zm6.332-3.351H42.67c-.972,0-1.407-.536-1.407-1.508V9.034c0-.972.436-1.474,1.407-1.474H53.995c.938,0,1.407.5,1.407,1.474v8.745c0,.972-.469,1.508-1.407,1.508Zm-.8-9.381a.268.268,0,0,0-.3-.3H43.642a.268.268,0,0,0-.3.3v.972h9.716Zm0,2.814H43.642v1.273h9.716Zm0,3.116H43.642v1.072c0,.168,0,.268.3.268h9.113c.2,0,.3,0,.3-.268Zm3.049,12.1a.838.838,0,0,1-.469,0c-1.709-1.005-3.753-2.077-5.294-2.848a.871.871,0,0,1-.57-.771,1.34,1.34,0,0,1,1.34-1.173,1.307,1.307,0,0,1,.5,0,52.235,52.235,0,0,1,5.294,2.546,1.039,1.039,0,0,1,.57.938,1.34,1.34,0,0,1-1.374,1.206Z" transform="translate(83.949 17.814)" fill="#231815"/><path d="M54.655,26.83H45.709A2.312,2.312,0,0,1,43.1,24.216V8.7c0-1.508,2.613-1.508,2.613,0V23.513c0,.6.235.838.737.838h8.209a1.24,1.24,0,1,1,0,2.479Z" transform="translate(101.56 17.843)" fill="#231815"/><path d="M56.053,19.6H50.189v6.165c0,1.541-2.613,1.541-2.613,0V10.323a2.345,2.345,0,0,1,2.647-2.647h5.763c4.724,0,6.7,2.479,6.7,5.83S60.911,19.6,56.053,19.6Zm0-9.448H50.96c-.57,0-.771.2-.771.8v6.2h5.83c2.848,0,4.222-1.608,4.222-3.619s-1.441-3.384-4.188-3.384Z" transform="translate(112.127 18.033)" fill="#231815"/><path d="M67.8,29.541a14.239,14.239,0,0,1-4.222-.838A1.34,1.34,0,0,1,62.544,27.4a1.441,1.441,0,0,1,1.34-1.474h.469a9.482,9.482,0,0,0,3.351.8c2.714,0,3.015-1.273,3.015-11.727,0-.57-.3-.838-.871-.838h-6.7a19.433,19.433,0,0,1-8.209,14.776,1.273,1.273,0,0,1-.8.268A1.541,1.541,0,0,1,52.66,27.7a1.173,1.173,0,0,1,.57-1.005A16.35,16.35,0,0,0,60.5,14.263H54.67A1.139,1.139,0,0,1,53.6,13.09a1.106,1.106,0,0,1,1.072-1.206H60.8V9.1c0-1.508,2.613-1.508,2.613,0v2.781h6.7a2.714,2.714,0,0,1,3.049,2.948C73.266,26.492,73,29.541,67.8,29.541ZM72.7,12.32a.871.871,0,0,1-.7-.436A12.564,12.564,0,0,0,70.284,9.74a.972.972,0,0,1-.268-.57.9.9,0,0,1,.9-.871.938.938,0,0,1,.67.3,11.493,11.493,0,0,1,1.843,2.211.972.972,0,0,1,.2.536.938.938,0,0,1-.938.972Zm2.312-1.407a.8.8,0,0,1-.67-.369,11.963,11.963,0,0,0-1.675-1.91.737.737,0,0,1-.268-.57.838.838,0,0,1,.871-.8.9.9,0,0,1,.6.268,15.547,15.547,0,0,1,1.809,2.01.9.9,0,0,1,.2.536.871.871,0,0,1-.871.838Z" transform="translate(124.181 17.108)" fill="#231815"/><path d="M79.751,27.105a1.273,1.273,0,0,1-1.039-.57A47.275,47.275,0,0,0,72.28,20a31.126,31.126,0,0,1-10.253,6.9,2.647,2.647,0,0,1-.67,0A1.407,1.407,0,0,1,59.95,25.5a1.273,1.273,0,0,1,.871-1.206,23.252,23.252,0,0,0,14.139-13.4.637.637,0,0,0,0-.235.536.536,0,0,0-.6-.469H63.468a1.156,1.156,0,0,1,0-2.312H75.161a2.446,2.446,0,0,1,2.747,2.345,3.752,3.752,0,0,1-.168,1.039,25.163,25.163,0,0,1-3.619,6.7,50.259,50.259,0,0,1,6.969,6.7,1.206,1.206,0,0,1,.369.871,1.675,1.675,0,0,1-1.709,1.575Z" transform="translate(141.368 18.506)" fill="#231815"/><path d="M84.744,16.258A16.316,16.316,0,0,1,81.9,15.99a1.072,1.072,0,0,1-.871-1.139A.938.938,0,0,1,82,13.812h.268a16.754,16.754,0,0,0,2.245.3c1.307,0,1.374-.7,1.374-2.814a.369.369,0,0,0-.268-.369h-5.9a7.539,7.539,0,0,1-4.959,5.7,1.173,1.173,0,0,1-.469,0,1.374,1.374,0,0,1-1.307-1.34v-.235h-1.34V28.186a1.106,1.106,0,0,1-2.211,0V15.052H68.125c-1.34,0-1.34-2.379,0-2.379h1.307V8.318c0-1.307,2.211-1.307,2.211,0v4.356H73.05c.8,0,1.139.871.938,1.608a5.227,5.227,0,0,0,3.351-3.351H74.458a1.072,1.072,0,0,1,0-2.144h3.35v-.7c0-.5.5-.737,1.039-.737s1.24.268,1.24.871v.436h6.4c1.24,0,1.809.9,1.809,2.077C88.161,14.75,87.625,16.258,84.744,16.258ZM77.708,29.225h-1.24c-.536,0-.771-.6-.771-1.139s.268-1.106.8-1.106h.637c.8,0,.871-.8.871-6,0,0,0-.268-.2-.268h-1.24a14.307,14.307,0,0,1-2.613,8.376.9.9,0,0,1-.67.3,1.441,1.441,0,0,1-1.374-1.273.9.9,0,0,1,.2-.57,11.325,11.325,0,0,0,2.278-6.7h-.972a1.072,1.072,0,0,1,0-2.144h1.173v-.972c0-.5.5-.771,1.039-.771s1.106.268,1.106.8V18.7H78.78a1.575,1.575,0,0,1,1.508,1.776c-.167,6.9-.167,8.577-2.58,8.577Zm8.309,0H84.811a1.106,1.106,0,0,1-.972-1.173,1.005,1.005,0,0,1,.938-1.072h.7c.771,0,.838-.838.838-6.1,0,0,0-.268-.235-.268H84.811a14.574,14.574,0,0,1-2.546,8.343.938.938,0,0,1-.737.335,1.374,1.374,0,0,1-1.374-1.273,1.173,1.173,0,0,1,.235-.67,10.588,10.588,0,0,0,2.245-6.7H81.628a1.072,1.072,0,0,1,0-2.144H82.7v-1.24a1.005,1.005,0,0,1,1.072-.972,1.039,1.039,0,0,1,1.139,1.039v1.039h2.077A1.575,1.575,0,0,1,88.5,20.145c0,7.271-.168,8.979-2.479,8.979Z" transform="translate(158.332 17.291)" fill="#231815"/><path d="M95.014,14.7h-.335L92.635,14a1.106,1.106,0,0,1-.7,1.91H78.865A1.072,1.072,0,0,1,77.792,14.8a1.039,1.039,0,0,1,.436-.9c-.57.235-1.508.536-2.312.771h-.335a1.441,1.441,0,0,1-1.24-1.474.972.972,0,0,1,.737-1.005A25.4,25.4,0,0,0,83.723,7.9a2.781,2.781,0,0,1,1.608-.57,2.446,2.446,0,0,1,1.575.57,24.124,24.124,0,0,0,8.644,4.389.972.972,0,0,1,.737,1.005A1.407,1.407,0,0,1,95.014,14.7Zm-.369,14.474a.871.871,0,0,1-.771-.469A16.957,16.957,0,0,0,93,27.232a153.619,153.619,0,0,1-17.155,1.575h0a1.206,1.206,0,0,1-1.106-1.273.938.938,0,0,1,.9-1.005h1.34a32.5,32.5,0,0,0,3.35-6.1H75.682a1.106,1.106,0,0,1,0-2.178H95.014a1.106,1.106,0,0,1,0,2.178H82.986a44.866,44.866,0,0,1-3.082,5.9c5.361-.268,9.716-.737,11.861-1.072-.7-.938-1.374-1.809-2.01-2.513a.972.972,0,0,1-.268-.67,1.24,1.24,0,0,1,1.173-1.139.838.838,0,0,1,.637.3,43.556,43.556,0,0,1,4.523,5.9.971.971,0,0,1,.2.637A1.407,1.407,0,0,1,94.645,29.175ZM85.566,9.809h-.3a33.506,33.506,0,0,1-6.7,3.887h13.4a30.857,30.857,0,0,1-6.4-3.887Z" transform="translate(175.301 17.273)" fill="#231815"/><path d="M22.248,11.96A11.124,11.124,0,1,1,11.124.87,11.124,11.124,0,0,1,22.248,11.96Z" transform="translate(0 1.985)" fill="url(#a)"/><path d="M33.868,18.625A11.124,11.124,0,1,1,22.945,7.5,11.123,11.123,0,0,1,33.868,18.625Z" transform="translate(27.313 17.671)" fill="url(#b)"/><path d="M22.955,22.755c-4.691,3.66-8.711,7.252-6.7,15.008A30.042,30.042,0,0,1,17.46,50.018H1.612a20.421,20.421,0,0,1,0-10.61,20.427,20.427,0,0,1,12.1-12.423,12.889,12.889,0,0,0,9.716-12.792A26.639,26.639,0,0,1,25.534,4.121a8.185,8.185,0,1,1,14.173,8.192,16.051,16.051,0,0,1-8.778,6.379,20.088,20.088,0,0,0-7.974,4.063Z" transform="translate(2.141 -0.018)" fill="#4fb197"/><path d="M28.38,23.037c-4.691,3.66-8.845,7.118-6.7,14.908a32.13,32.13,0,0,1,1.642,10.913H6.87a15.477,15.477,0,0,1,.2-9.267A20.126,20.126,0,0,1,19.133,27.167a12.855,12.855,0,0,0,10.052-12.86c.536-8.361,1.91-10.073,1.91-10.073A8.213,8.213,0,0,1,45.3,12.427a18,18,0,0,1-8.879,6.715,33.675,33.675,0,0,0-8.041,3.895Z" transform="translate(14.707 1.142)" fill="#009bce"/></g></g></svg>